<?xml version="1.0" encoding="utf-8"?>
<svg version="1.1" xmlns="http://www.w3.org/2000/svg" xmlns:xlink="http://www.w3.org/1999/xlink" x="0px" y="0px"
	 viewBox="0 0 24 24" style="enable-background:new 0 0 24 24;" xml:space="preserve">
<path d="M2,2v20h20V2H2z M20,11h-1.9c-0.4-2.6-2.5-4.7-5.1-5.1V4h7V11z M12,16.2c-2.3,0-4.2-1.9-4.2-4.2c0-2.3,1.9-4.2,4.2-4.2
	c2.3,0,4.2,1.9,4.2,4.2C16.2,14.3,14.3,16.2,12,16.2z M11,4v1.9C8.4,6.3,6.3,8.4,5.9,11H4V4H11z M4,13h1.9c0.4,2.6,2.5,4.7,5.1,5.1
	V20H4V13z M13,20v-1.9c2.6-0.4,4.7-2.5,5.1-5.1H20v7H13z"/>
</svg>
