<?xml version="1.0" encoding="utf-8"?>
<svg version="1.1" id="Layer_1" xmlns="http://www.w3.org/2000/svg" xmlns:xlink="http://www.w3.org/1999/xlink" x="0px" y="0px"
	 viewBox="0 0 24 24" style="enable-background:new 0 0 24 24;" xml:space="preserve">
<style type="text/css">
	.st0{fill:none;stroke:#000000;stroke-linecap:round;stroke-linejoin:round;}
</style>
<g>
	<path class="st0" d="M9.8,4.2c0,0,0,2.2,0,3.6c0,2.6-2.8,6.3-4.6,8.4l0,0c-0.6,0.6-1,1.5-1,2.4c0,1.9,1.5,3.4,3.4,3.4h8.9
		c1.9,0,3.4-1.5,3.4-3.4c0-0.9-0.4-1.8-1-2.4v0c-1.8-2.2-4.6-5.9-4.6-8.4c0-1.4,0-3.6,0-3.6h0.4c0.6,0,1.1-0.5,1.1-1.1
		S15.2,2,14.6,2H9.4C8.8,2,8.3,2.5,8.3,3.1s0.5,1.1,1.1,1.1H12"/>
	<g>
		<line class="st0" x1="5.2" y1="16.2" x2="10.6" y2="16.2"/>
		<line class="st0" x1="7" y1="14.3" x2="10.6" y2="14.3"/>
		<line class="st0" x1="8" y1="12.4" x2="10.6" y2="12.4"/>
	</g>
</g>
</svg>
